# xmcd
#
# Track frame offsets:
# 150
# 3642
# 20348
# 37632
# 56680
# 74468
# 94240
# 111822
# 129840
# 146011
# 163750
#
# Disc length: 2416 seconds
#
#
# Revision: 0
# Processed by: cddbd v1.5.1PL0 Copyright (c) Steve Scherf et al.
# Submitted via: FreeRIP 2.80 
#
DISCID=8d096e0b
DTITLE=None - The Ultimate Blues Jam, Vol. 2
DYEAR=2003
DGENRE=Blues
TTITLE0=Introduction
TTITLE1=Boogie in E
TTITLE2=Rock Blues Shuffle in B
TTITLE3=Slow Blues in C
TTITLE4=Two Feel Blues in G
TTITLE5=Texas Swing in D
TTITLE6=Rhumba in A
TTITLE7=Slow 8 Bar Blues in E
TTITLE8=Funky Blues in G
TTITLE9=Big Shuffle in E
TTITLE10=Chicago Blues in A
EXTD=
EXTT0=
EXTT1=
EXTT2=
EXTT3=
EXTT4=
EXTT5=
EXTT6=
EXTT7=
EXTT8=
EXTT9=
EXTT10=
PLAYORDER=
